<svg xmlns="http://www.w3.org/2000/svg" viewBox="0 0 241 294" width="241" height="294"><defs><style>.a{fill:#c64c4c;}</style></defs><path class="a" d="M593.65,385.84c.74-1.73,1.47-3.46,2.17-5.18C594.4,384,593.82,385.34,593.65,385.84Z" transform="translate(-592 -363)"/><path class="a" d="M747.11,632.79a88.81,88.81,0,0,0,7.08-9.3,89.18,89.18,0,0,1-7.34,9.52,38.47,38.47,0,0,1-4.51,4.3,15,15,0,0,1-6.14,3.16,15.23,15.23,0,0,0,6.44-3.34A37.68,37.68,0,0,0,747.11,632.79Z" transform="translate(-592 -363)"/><path class="a" d="M691.88,474l-.75,1.71C691.89,474.14,692,473.86,691.88,474Z" transform="translate(-592 -363)"/><path class="a" d="M698.28,397.55c-.31.56-.65,1.17-1,1.87Z" transform="translate(-592 -363)"/><path class="a" d="M700,394.48l-1.17,2.09Z" transform="translate(-592 -363)"/><path class="a" d="M745,632.8a28.61,28.61,0,0,1-5.52,4.54,16.37,16.37,0,0,0,1.86-1.17A39.12,39.12,0,0,0,745,632.8Z" transform="translate(-592 -363)"/><path class="a" d="M615.3,622.73l.14-.3c.28-.65.5-1.14.8-1.81Z" transform="translate(-592 -363)"/><path class="a" d="M754.19,623.49c2.54-3.76,4.9-7.61,7.13-11.52C758.87,616.19,756.58,619.93,754.19,623.49Z" transform="translate(-592 -363)"/><path class="a" d="M694.78,575.47l1.5-2.64C695.79,573.68,695.29,574.57,694.78,575.47Z" transform="translate(-592 -363)"/><path class="a" d="M693.75,577.29c.36-.62.69-1.22,1-1.82C694.39,576.17,694,576.78,693.75,577.29Z" transform="translate(-592 -363)"/><path class="a" d="M655.49,644a6.58,6.58,0,0,0,.4-.93A4,4,0,0,0,655.49,644Z" transform="translate(-592 -363)"/><path class="a" d="M732.67,367.44c-.2.39.21-1.42.83-4.44h-7.14c-1.56,6.64-3.43,13.26-5.34,19.9-1.28,4.39-2.59,8.86-4,13.27s-2.91,8.82-4.54,13.31c-.42,1.37.94-2.18,2.21-5.75s2.43-7.18,2.1-5.83c-2.9,9.12-5.46,15.61-7.52,20.78s-3.76,9-5.42,12.77c-3.36,7.5-6.59,14.7-14.24,31.08l3-6.87C687.79,466.28,685.81,471,677,488c-.89,1.42.91-2.23,3.41-7.3s5.66-11.56,7.6-15.76c-2.86,5.94-8,16.37-11.92,24.16s-6.55,13-4.08,8.51c-7.22,14.07-10.22,19-14.36,26.44-.06.29,7.21-12.89,2.92-4.68-5.19,9.42-11.87,21.37-19,33.71s-14.88,25.08-21.89,36.17c.06-.23-1,1.26.18-.69-5.48,9-8.13,12.92-11.37,17.61-.77,1.09-1.56,2.23-2.43,3.48a21.54,21.54,0,0,1-.26-4.09,42.81,42.81,0,0,1,.33-4.38,80.38,80.38,0,0,0,13-15.89,172.65,172.65,0,0,0,10.53-18.91c3.19-6.58,6.16-13.48,9-20.87a56.11,56.11,0,0,0,2.92-7.15c1.14-3.28,2.89-8.21,5.87-17.35l-.67,1.28a320.78,320.78,0,0,0,8.65-33.67c.92-4.85,1.72-9.78,2.19-14.87,4.76-9.46,9.86-19.35,15.51-30-1.14,2.46,3.24-5.92,7.42-13.68s8.11-14.91,5.8-10.14c15-27.82-2.86,4.37,3.76-8.46,4.25-7.74,8.65-15.9,9.59-17.19-1.92,3.68,3.78-6.11.31.17q5.14-9.21,10.39-18.36c1-1.72-1.22,2.33-2.35,4.37q4-7,7.82-13.57,1.17-2,2.34-3.92h-7.87c-.36.62-.73,1.23-1.09,1.84l-9.67,16.65,3.38-6.12c-7.79,13.81-11.74,20-19.25,33.69-6.57,12.42-11.59,21.48-9.84,19.13-9.46,18-3.94,6.77-7.05,12.55-2,3.92-5.82,11.34-9.55,18.55-.1-.42-.22-.85-.38-1.32a11.54,11.54,0,0,0-.79-1.77,7.43,7.43,0,0,0-1.17-1.63,6.31,6.31,0,0,0-3.4-1.91,7.29,7.29,0,0,0-3.93.44,7.1,7.1,0,0,0-1,.4c-.31.16-.63.33-.82.45-.48.28-.87.56-1.25.83a24.28,24.28,0,0,0-2.06,1.71c-1.25,1.15-2.37,2.34-3.44,3.54-2.14,2.41-4.08,4.9-6,7.42-3.75,5.05-7.22,10.24-10.58,15.49q-2.35,3.71-4.64,7.45l.34-.91c.32-.85.59-1.55.77-2s.28-.77.28-.8c-.82,1.76-1.44,3.25-2,4.81-.33.54-.65,1.09-1,1.64.09-.31.12-.45,0-.35,4.72-11.84,7.25-18.9,11.31-29.27,1.8-4.38,3.78-9.25,5.79-14.32,1-2.54,2-5.13,3-7.72s2-5.28,2.86-7.89c3.56-10.47,6.48-20.47,8.6-27.33,1.2-4.5,2.37-9.3,3.84-15.4s3.23-13.52,5.43-23.31c.54-2.17.89-3.59,1.13-4.5h-6q-1.32,6.06-2.77,12.11l1-4.81c-1.69,8.06-4.7,19.45-7,27.57s-3.9,13-2.36,8.14c-1.21,4.51-2.93,10.62-4.49,15.9s-3,9.76-3.34,11.08c-1,2.86-1.79,5-2.46,6.75l-1.51,3.86a24,24,0,0,1-1,2.35c-.18.28.05-.52-2.77,6.47-6.47,16.4-7.46,19.36-16.16,41.65l0-.52c-3.95,10.48-6.33,17-11.53,31.76l1.49-4.41-1.84,5.38q-2.74,5.12-5.54,10.46v31.11c.32-1.28.64-2.56,1-3.82,2-7.85,4.3-15.56,7.19-24.5q1-3.18,2.19-6.61c4.91-9.28,9.85-18.22,14.76-26.71,4-7.31,9.15-16.21,15.26-25.56,3.06-4.66,6.36-9.47,10-14,.92-1.12,1.86-2.22,2.82-3.27a31,31,0,0,1,2.94-2.84,10.52,10.52,0,0,1,1.25-.89,1.15,1.15,0,0,1,.44-.15.71.71,0,0,1,.7.51c-.09.23,0,1-.07,1.71a40,40,0,0,1,.36,9.27l-.06.84c-1.5,2.88-2.61,5-3.06,5.77-2.2,5.12-8.32,17.33-13.84,28.89s-10.47,22.43-11.06,24.44q-3.49,7.57-6.84,15.23a29,29,0,0,1-1.18,3.65c-.9,2.44-2.37,6.4-4.74,12.77-2.3,6-3.16,8.26-3.7,9.48s-.68,1.4-1.37,3.23q-1.1,4.2-2,8.44a129.77,129.77,0,0,0-3.15,13,25.28,25.28,0,0,1-6.25,3.81c-.52.2-1,.37-1.54.51v7.81c.68-.12,1.35-.27,2-.45a25.45,25.45,0,0,0,4.78-1.95,25.12,25.12,0,0,0,.11,2.85,19,19,0,0,0,.85,4.31,13,13,0,0,0,1.44,3c-2.16,3.07-4.81,6.79-8.23,11.54l-1,1.29v12.7l.58-.74-.58.78h0q7.93-10.39,15.48-21.42a14.22,14.22,0,0,0,4.64,0,21.74,21.74,0,0,0,4.29-1.09l.37-.15c-.44,1-.9,1.92-1.34,2.88-3.69,8.36-6.05,14-7.82,18.18s-2.9,7-4,9.73c-.81,2-1.62,4-2.53,6.66h7.76q1.15-3.43,2.45-6.87L612,649l4.59-11.06c1.33-3.14,2.68-6.34,5-11.38l0,.28c2.08-4.51,4.29-9.17,6.57-13.87.76-.59,1.52-1.18,2.27-1.79,8.23-6.85,15.34-14.86,22.18-23.17s13.24-17.1,19.46-26.05c12.41-17.92,24-36.61,34.81-55.24s20.9-37.24,30-55.24c4-8.08,8.07-16.74,12-25.95,1-2.3,2-4.65,2.9-7,.46-1.21.92-2.41,1.39-3.62l.34-.92.56-1.58c.39-1.12.77-2.24,1.11-3.35a36.65,36.65,0,0,0,1.44-6.24,8.48,8.48,0,0,0-.44-4.15,5,5,0,0,0-.81-1.41,4.15,4.15,0,0,0-.74-.67,3.11,3.11,0,0,0-1-.49,4.4,4.4,0,0,0-1.71-.09,6.49,6.49,0,0,0-1.68.45,13.69,13.69,0,0,0-4.16,3,62.24,62.24,0,0,0-4.59,5.25l-1.84,2.37-1.22,1.61-2.39,3.26c-3.14,4.37-6.16,8.81-9.14,13.27-5.95,8.92-11.7,17.93-17.26,26.81l2.41-4q-11.14,17.59-21.81,35.47,7.83-12.93,15.87-25.74c-4.72,7.78-8.3,13.88-12.83,21.43-11.81,19.55-25.24,42.57-38.76,67.07-11.17,20.29-22.45,41.57-32.69,62.86-.37.26-.74.52-1.12.77.14-.17-1.5.85.3-.37a31.57,31.57,0,0,1-8.49,4q6.2-9.25,12.23-18.84c10.73-17,21.19-34.61,31.46-52.73-.94,1.85.21-.06-.44,1.22,4.63-8.62,11.25-20.2,15.2-27.61l-5.14,9.11c5.48-10.5,13.54-25.45,16.43-30.74q4.14-8.42,8.17-16.89c.56-1.09,1.44-2.79,1.58-3l1.34-3,4.61-8.83c.95-2.12,4.07-8.79,7.19-15.89s6.24-14.63,7.58-18.28c.85-1.6,7.42-17.89,2.44-5.25,2.16-5.3,4.23-10.65,6.16-16.07s3.66-11,5.27-16.41,3.21-11,4.69-16.5c.94-3.56,1.84-7.13,2.65-10.75h-.06Q733.22,365.24,732.67,367.44ZM610.35,581.21c.32-.58,1.28-3.37,2.33-6.14s2.13-5.54,2.48-6.12c4.29-11.89,8.77-22.69,13.21-33s8.91-20.07,13.5-29.85q2.49-5.3,5-10.61c-1,4.29-2.32,9.48-3.48,13.59-.57,2.06-1.11,3.85-1.49,5.12l-.47,1.48a2.61,2.61,0,0,1-.19.51,4.86,4.86,0,0,1,.15-.63c.11-.43.29-1.08.53-2,.49-1.81,1.26-4.64,2.29-8.76a345.35,345.35,0,0,1-12.11,37.44,228.84,228.84,0,0,1-16.89,35.24c-2.23,3.65-3.77,5.92-4.92,7.58-.68,1-1.23,1.76-1.73,2.46Q609.43,584.37,610.35,581.21Zm-10.65,16c-.69.54-1.45,1.09-2.29,1.65-1.5.85-.21.09,1.23-1,.38-.28.76-.59,1.1-.88C599.73,597,599.71,597.11,599.7,597.2Zm6,12.86,0-.13a19.12,19.12,0,0,1-.31-2.83,35.67,35.67,0,0,1,.12-4.13c0-.45.09-.92.15-1.39l.35-.32c0,.34-.07.69-.11,1.06a38.1,38.1,0,0,0-.17,5.16,19.43,19.43,0,0,0,.19,2.32Zm48.7-48.39.2-1c7.43-13.72,4-7,11.63-21.09l-.1.48,8.89-16.39c-.22.91,5.21-8.67,11.62-19.74s13.82-23.62,17.15-28.89c5.18-8.66,12.74-21.18,21.31-34.57,4.29-6.7,8.83-13.61,13.5-20.3,1.17-1.67,2.34-3.33,3.53-4.95l1.78-2.42,1.59-2.08.39-.5.33-.37a3.17,3.17,0,0,1,.7-.63s.08,0,.15.08.07.24,0,.38a5.73,5.73,0,0,1-.26.91l-1,2.7c-1,2.64-2.22,5.5-3.51,8.47-5.14,11.91-11.93,25.67-17.43,36.25-10.58,20.69-24.21,45.48-39.93,70.81-7.87,12.66-16.26,25.45-25.19,37.78-4.46,6.16-9.07,12.2-13.84,18q-4.28,5.19-8.78,10C643.94,581.21,650.34,569.07,654.43,561.67Z" transform="translate(-592 -363)"/><path class="a" d="M602.6,363l-3,8.38c-1.28,3.47-2.91,7.91-5.64,14.29.63-1.59-.67,1.14-.29.13-.54,1.25-1.1,2.51-1.65,3.76v11.27c1.74-3.51,2.73-5.45.31.14,1.14-2.26,2.76-5.6,4.6-9.59.91-2,1.89-4.15,2.88-6.43s2-4.69,3-7.16c1.91-4.88,3.7-10,5.27-14.83h-.4c-.47,1.34-.77,2.13-.77,1.92.22-.65.42-1.28.63-1.92h-4.87Z" transform="translate(-592 -363)"/><path class="a" d="M636.28,656.93c8.73-11.82,16.52-24.17,26-40.5-.84,2,2.29-3.26,5.35-8.71s6.09-11.06,5.41-9.5l1.31-2.87c4.23-7.23,13.48-24.66,12.3-22.07q3.72-7.42,7.34-14.9l.88-1.16c5-9.82,12.66-25.34,19.46-39.89,1.8-3.52,3.55-7,5.22-10.25l4.8-9.24c3-5.65,5.39-10.15,6.83-12.65,6.18-12.1,13.36-25.91,21.32-40.63,4-7.36,8.16-14.95,12.56-22.63,2.21-3.83,4.46-7.69,6.8-11.53,1.17-1.91,2.36-3.82,3.57-5.71l.74-1.14.27-.39a4.65,4.65,0,0,1,.61-.72.36.36,0,0,1,.21-.11c.09,0,.11.1.12.18a1.83,1.83,0,0,1,0,.47c-.05.32-.13.63-.21.94l-.27.93-1,3.3-1,3.29-1.15,3.27-2.29,6.52-2.19,6.19q-5.7,9.94-11.18,20.14-11.1,20.57-21.65,41.88c-7,14.19-13.89,28.6-20.46,43.22q-5.26,11.73-10.24,23.65c-4.27,7.81-8.54,15.5-12.68,22.52a14.53,14.53,0,0,1,.79-1.54c-7.91,14-15.71,27.18-23,40.39-4.4,7.65-8.75,15.19-11.66,20.24a70.34,70.34,0,0,1-3.64,6.08c-.5,1-1.43,2.75-2.63,4.93L648.51,657h8.18c1.08-2,2.16-4,3.28-6.06l6.22-11.18,6.36-11.18q8.78-15.33,17.67-30.75c-.26.81-.52,1.62-.77,2.44a151.7,151.7,0,0,0-5.55,24.1,58.56,58.56,0,0,0-.48,6.43,30.69,30.69,0,0,0,.58,6.89,17.39,17.39,0,0,0,.74,2.6q-5.21,8.46-10.51,16.71h8.91q3.23-5.09,6.56-10.46a10.05,10.05,0,0,0,2.31,1,16.19,16.19,0,0,0,4,.64,21.56,21.56,0,0,0,7.29-1.17,36.53,36.53,0,0,0,6.15-2.74,71.74,71.74,0,0,0,10.42-7.2c2.82-2.32,5.5-4.74,8.08-7.23a28.64,28.64,0,0,0-.11,3.23,11.8,11.8,0,0,0,.64,3.59,5.7,5.7,0,0,0,2.63,3.13,7.54,7.54,0,0,0,5.07.66,17.07,17.07,0,0,0,7.35-4.29,52.53,52.53,0,0,0,5.9-6.49c1.6-2.06,2.79-3.8,3.3-4.61s.35-.68-.89.89c4.7-6.54,7.71-11.54,9.9-15.15a71.1,71.1,0,0,0,4-7.37c-2.59,4.83-3.83,6.74-4.24,7.34s-.07-.2.28-1,.71-1.62.31-1.09-1.53,2.42-4.37,6.89q3.54-5.8,6.71-11.83c.57-1.27-1.52,2.86-3.78,6.81s-4.67,7.74-3.91,6.24c-.55,1.17-1.11,2.32-1.69,3.48-6.19,9.17-10.58,13.57-13.83,15.88a16,16,0,0,1-4.15,2.5,7.85,7.85,0,0,1-2.51.53,6,6,0,0,1-2.78-.58,4.25,4.25,0,0,1-2.13-2.48,10.56,10.56,0,0,1-.58-3.28,26.36,26.36,0,0,1,.24-4.37c2.77-2.73,5.42-5.53,8-8.37,5.41-6,10.5-12.08,15.39-18.31,9.79-12.47,18.81-25.29,27.29-38.26q3.16-4.87,6.23-9.78c2-3.25,4.06-6.64,5.92-10,3.75-6.75,7.17-13.58,10.39-20.42,6.43-13.68,12.13-27.4,17.26-41.05,2.56-6.84,5-13.65,7.16-20.49.55-1.72,1.08-3.43,1.59-5.15l1-3.28c.45-1.6.88-3.2,1.25-4.76a40.47,40.47,0,0,0,1.37-8.39,7.5,7.5,0,0,0-1.13-4.4,4.68,4.68,0,0,0-.58-.7,3.35,3.35,0,0,0-1-.7,3.2,3.2,0,0,0-1.19-.26,3.85,3.85,0,0,0-.85.07,6,6,0,0,0-1.67.54,8.08,8.08,0,0,0-.94.55,2.86,2.86,0,0,0-.51.41l-.64.81L818.6,443l-4.36,6.54-5.72,8.62-5.47,8.39c-7.21,11.16-13.74,22.36-19.69,33.31s-11.51,21.64-16.64,32c-10.24,20.75-19.09,40.1-26.26,57.77-3.56,8.84-6.71,17.26-9.17,25.34-.39,1.31-.76,2.6-1.11,3.89a156.69,156.69,0,0,1-14.13,13.46c-2,1.5-2.64,1.92-2.41,1.71l2.84-2.34a125.82,125.82,0,0,0,9.85-9.27,118.4,118.4,0,0,1-13.28,11.89c-4.37,3.27-8.82,5.93-13.15,7a11.35,11.35,0,0,1-6,0,4.09,4.09,0,0,1-.82-.37q8.26-13.49,17.17-28.67c11.11-19,22.85-39.87,34.61-62.6s23.57-47.25,34.22-73.68a416.59,416.59,0,0,0,14.37-41.29c1-3.6,1.94-7.25,2.76-11a103.51,103.51,0,0,0,1.94-11.47c.06-.49.1-1,.14-1.5l.06-.76,0-1.3c0-.44,0-.88,0-1.32l-.05-1.37a21.09,21.09,0,0,0-.29-2.6,9.41,9.41,0,0,0-1.66-4,6.14,6.14,0,0,0-1.37-1.27,5.19,5.19,0,0,0-1.87-.8,5.86,5.86,0,0,0-1.93-.1,5.51,5.51,0,0,0-1.69.47,10.33,10.33,0,0,0-3.57,3c-.23.28-.45.57-.68.86l.21-.84c.91-3.73,1.52-7.45,1-9.44a6.12,6.12,0,0,0-1-2.43,4.24,4.24,0,0,0-.85-.92,3.46,3.46,0,0,0-1.56-.71,5,5,0,0,0-2.43.23,8,8,0,0,0-2.75,1.65,24.89,24.89,0,0,0-3.29,3.6c-1.12,1.43-2.25,3-3.34,4.65l-1.47,2.2-1,1.53-1.69,2.67c-4,6.46-7.76,13-11.43,19.46,4-7.08,5.34-9,4.72-7.76s-3.54,6.54-7.27,13.1c-10.43,17.81-18.74,33.64-27,49.61-4.1,8-8.2,16-12.49,24.4L710.53,509l-1.65,3.23L708,513.9l-.84,1.76q-3.16,6.65-6.69,13.65C692.27,546.47,683.88,563,675.3,579s-17.38,31.52-26.69,46.47c-4.65,7.47-9.45,14.78-14.5,21.84-2.37,3.29-4.8,6.54-7.31,9.68h9.42Zm99.29-50.4c-.25.7-.48,1.41-.72,2.12.85-2.42,1.54-4.21,2-5.53.78-2,1.2-3,1.43-3.47a11,11,0,0,0,1-2.06l-1.61,4.15c1.67-4.21,3.43-8.38,5.22-12.53-2.26,5.35-4.66,11.57-6.18,15.9-1.81,5.21-2.52,7.63-.71,2.39,2.06-5.62,3.06-8,3.34-8.8s-.08.12-.52,1.18c-.86,2.14-2,4.94,1.18-3.43,4.15-10.35,3.25-7.33,3.18-6.83,2.55-6.15,5.21-12.27,7.93-18.35-.1.71-5.37,12.1-1.89,4.77q5-11.55,10.32-23c1.25-2,4.14-8.21,7.5-15.15s7.18-14.59,10.09-19.57c-8.22,16.15.9-1.36-.26,1.29,6.86-13.1,13.91-26.11,21.58-38.76,1.12-1.77-.36.74-1.67,3s-2.44,4.23-.75,1.32c4.4-7.1,7-11.76,9.49-15.55l9.91-14.85c4.31-6.38,7.66-11.3,7.29-10.43a24.85,24.85,0,0,1,2.59-3.35,4.94,4.94,0,0,1,.7-.6,1,1,0,0,1,.82-.24c.28.1.38.43.44.68a4.43,4.43,0,0,1,.08.8,28,28,0,0,1-.65,4.85c-.54,2.46-.8,3.69-1.06,4.87l-.47,2c-.2.79-.47,1.82-.86,3.14-.79,2.67-2,6.65-4.39,13.24-.71,1.71,1.14-3.54,2.51-7.79s2.33-7.49.36-1.59c-2.95,9.22-6.26,18.34-9.77,27.37.84-2.5,1.78-5.38,5.52-15.6A527.74,527.74,0,0,1,798.05,521c-3.52,7.25-7.09,14.13-10.85,20.67-1.88,3.28-3.82,6.43-5.84,9.56s-4,6.2-6.06,9.25c-8.17,12.19-16.6,24-26,36-4.72,6-9.7,12-15.13,18.08l-2.1,2.3C733,613.77,734.14,610.37,735.57,606.53Zm51.21-194.09q.88-1.37,1.8-2.7l.71-1,.23-.31a6.66,6.66,0,0,1,.49-.59c.15-.18.42-.37.66-.2a1.08,1.08,0,0,1,.29.69,6.27,6.27,0,0,1,0,.75l0,.46-.11,1.43c-.1,1-.23,2.06-.38,3.09.2-1.31.39-2.63.51-3.92l.1-1,0-.55a3.43,3.43,0,0,1,0,.47,2.54,2.54,0,0,1,0,.3v.51c-.06,1.27-.21,2.64-.38,4.07-.37,2.85-.93,5.93-1.6,9-1.36,6.26-3.18,12.7-4.83,18.14-.31.81.19-1.19,0-1s-.89,2.62-4.12,12.14c1.47-3.9,4.13-11.95,3.46-9.52-4.64,14.13-11.53,31.94-20.39,51.82s-19.65,41.85-31.75,64.51-25.47,46-39.24,68.8L690,631.67a48.45,48.45,0,0,1,.4-5.75,104.43,104.43,0,0,1,2.45-12.37c1-4.12,2.26-8.27,3.61-12.53,2.72-8.52,6-17.54,10-27.82l.08-.82c1.57-3.86,3.2-7.78,4.87-11.73q6.24-11.08,12.37-22.25L730,527l3.09-5.72,3-5.75q3-5.75,6-11.49c2-3.84,3.9-7.72,5.85-11.57l2.91-5.79,1.45-2.89,1.4-2.92q2.78-5.85,5.56-11.67c1.89-3.87,3.57-7.83,5.33-11.75l2.61-5.89c.86-2,1.77-3.91,2.55-5.91l4.8-11.93,1.19-3a2.77,2.77,0,0,0,.1-.26C779.41,424.35,783,418.28,786.78,412.44Z" transform="translate(-592 -363)"/><path class="a" d="M599.27,472.05c1.78-7.14,3.57-14.27,5.5-21.36l-1.15,5.13c3-11.78,6.19-23.5,9.8-35.09v.49c3.67-11.44,8.77-26,15.11-40.94,2.39-5.76,5-11.55,7.77-17.28h-6.77c-.51,1.07-1,2.18-1.54,3.35a27.49,27.49,0,0,1,1.43-3.35h-.1c-2.49,5.42-4.28,9.93-5.86,13.65.72-1.72,7.19-15.68,4.29-8.73-4.63,10-8.93,21.68-11.88,29l2-5.67,2.11-5.63c-2.11,5.34-3.33,8.77-4.21,11.26s-1.45,4-2,5.69c-1.11,3.31-2.51,7-6.54,19.5a3.56,3.56,0,0,0,.26-1.29c-4.51,15.11-10.11,34.67-15.49,57v24.8c2.68-11,5.17-21.58,7.78-32.95C600.33,467.54,600.33,467.8,599.27,472.05Z" transform="translate(-592 -363)"/><path class="a" d="M592,477.44h0l.11-.47C592.07,477.14,592,477.29,592,477.44Z" transform="translate(-592 -363)"/><path class="a" d="M734.85,608.65c-.45,1.27-.94,2.7-1.49,4.35C733.84,611.54,734.34,610.1,734.85,608.65Z" transform="translate(-592 -363)"/><path class="a" d="M655.64,543.15c-.3.55-.59,1.1-.87,1.63C655.21,544,655.48,543.46,655.64,543.15Z" transform="translate(-592 -363)"/><path class="a" d="M755.8,423.33c-.36.64-.74,1.3-1.14,2Z" transform="translate(-592 -363)"/><path class="a" d="M607.49,420.74c.39-1.29.76-2.55,1.1-3.68C607.78,419.52,607.59,420.35,607.49,420.74Z" transform="translate(-592 -363)"/></svg>