<svg xmlns="http://www.w3.org/2000/svg" viewBox="0 0 700 700"><rect x="77.78" y="54.44" width="427.78" height="77.78"/><polygon points="622.22 552.22 622.22 645.56 528.89 645.56 528.89 552.45 622.22 552.22"/><path d="M505.56,132.22,101.11,225.56,194.44,630l404.45-93.33ZM312.79,433.11q12.65,17.07,38.73,17.07,25.68,0,38.93-13.25T403.7,399.6h81.87q0,56.59-34.72,86.69t-98.12,30.1q-70.64,0-107-36.11T209.45,373.52q0-70.63,36.32-106.75t107-36.12q61.39,0,97.12,30.7T485.57,349H400.88q0-24.07-12.63-38.13t-35.92-14q-26.9,0-39.54,16.85t-12.64,47v25.68Q300.15,416.06,312.79,433.11Z"/></svg>